<svg width="148" height="153" viewBox="0 0 148 153" fill="none" xmlns="http://www.w3.org/2000/svg">
<circle cx="84.509" cy="83.7943" r="62.7118" fill="#E6E6E6"/>
<circle cx="14.2933" cy="66.1063" r="14.2933" fill="#E6E6E6"/>
<circle cx="41.8078" cy="8.9333" r="8.9333" fill="#E6E6E6"/>
<circle cx="140.253" cy="20.5466" r="6.96797" fill="#E6E6E6"/>
<circle cx="138.109" cy="125.245" r="3.39465" fill="#E6E6E6"/>
<path d="M102.942 24.9894C102.197 24.8309 102.197 23.7671 102.942 23.6085L104.596 23.2569C104.868 23.1991 105.08 22.9874 105.139 22.716L105.501 21.0483C105.662 20.3066 106.72 20.3066 106.88 21.0484L107.242 22.716C107.301 22.9874 107.513 23.1991 107.785 23.2569L109.439 23.6085C110.184 23.7671 110.184 24.8309 109.439 24.9894L107.785 25.3411C107.513 25.3989 107.301 25.6105 107.242 25.8819L106.88 27.5496C106.72 28.2913 105.662 28.2913 105.501 27.5496L105.139 25.8819C105.08 25.6105 104.868 25.3989 104.596 25.3411L102.942 24.9894Z" fill="#E6E6E6"/>
<path d="M9.98795 94.8417C10.2117 93.7844 11.7208 93.7844 11.9446 94.8417L12.4243 97.1081C12.5058 97.4929 12.8054 97.7943 13.1898 97.8781L15.4863 98.3784C16.5359 98.607 16.5359 100.104 15.4863 100.333L13.1898 100.833C12.8054 100.917 12.5058 101.218 12.4243 101.603L11.9446 103.869C11.7208 104.926 10.2117 104.926 9.98795 103.869L9.50823 101.603C9.42676 101.218 9.12717 100.917 8.74276 100.833L6.44621 100.333C5.39669 100.104 5.39668 98.607 6.44621 98.3784L8.74276 97.8781C9.12717 97.7943 9.42676 97.4929 9.50823 97.1081L9.98795 94.8417Z" fill="#E6E6E6"/>
<path d="M100.398 144.025C100.618 142.985 102.103 142.985 102.323 144.025C102.403 144.404 102.699 144.7 103.077 144.783C104.122 145.01 104.122 146.504 103.077 146.732C102.699 146.814 102.403 147.111 102.323 147.49C102.103 148.53 100.618 148.53 100.398 147.49C100.318 147.111 100.022 146.814 99.6436 146.732C98.5984 146.504 98.5984 145.01 99.6436 144.783C100.022 144.7 100.318 144.404 100.398 144.025Z" fill="#E6E6E6"/>
</svg>
