<svg width="94" height="94" viewBox="0 0 94 94" fill="none" xmlns="http://www.w3.org/2000/svg">
<path d="M41.4216 2.16471C44.4058 -0.721627 49.1411 -0.721628 52.1253 2.16471C54.2439 4.21393 57.3467 4.87345 60.1157 3.86313C64.0158 2.44008 68.3418 4.36614 69.894 8.2167C70.996 10.9505 73.5622 12.815 76.5028 13.0183C80.6445 13.3046 83.8131 16.8237 83.6649 20.9726C83.5597 23.9183 85.1458 26.6654 87.7494 28.0471C91.4166 29.9933 92.8799 34.4969 91.057 38.2269C89.7628 40.8751 90.0943 44.0299 91.9109 46.3511C94.4695 49.6206 93.9745 54.33 90.792 56.9961C88.5326 58.889 87.5524 61.9058 88.2677 64.7653C89.2753 68.7928 86.9076 72.8937 82.9159 74.0349C80.0819 74.8451 77.9593 77.2024 77.4498 80.1056C76.7321 84.1947 72.9011 86.9781 68.7904 86.397C65.8718 85.9845 62.974 87.2747 61.3277 89.7196C59.0088 93.1633 54.3769 94.1479 50.8579 91.9451C48.3595 90.3811 45.1874 90.3811 42.689 91.9451C39.1699 94.1479 34.538 93.1633 32.2192 89.7196C30.5729 87.2747 27.6751 85.9845 24.7565 86.397C20.6458 86.9781 16.8148 84.1947 16.0971 80.1056C15.5876 77.2024 13.465 74.8451 10.631 74.0349C6.63929 72.8937 4.2716 68.7928 5.27917 64.7653C5.99452 61.9058 5.01429 58.889 2.75483 56.9961C-0.42762 54.33 -0.922601 49.6206 1.636 46.3511C3.45253 44.0299 3.78411 40.8751 2.48988 38.2269C0.666962 34.4969 2.13027 29.9933 5.79749 28.0471C8.40112 26.6654 9.98717 23.9183 9.88196 20.9726C9.73377 16.8237 12.9024 13.3046 17.0441 13.0183C19.9846 12.815 22.5509 10.9505 23.6529 8.2167C25.2051 4.36614 29.5311 2.44009 33.4312 3.86313C36.2002 4.87345 39.303 4.21393 41.4216 2.16471Z" fill="#065E21"/>
</svg>
