<svg width="242" height="88" viewBox="0 0 242 88" fill="none" xmlns="http://www.w3.org/2000/svg">
<path d="M31.0356 66.8361C35.9454 85.9272 87.2435 88 87.2435 88L87.187 75.7611L196.955 74.5367L200.592 70.3324L196.925 66.102L31.0356 66.8361Z" fill="white"/>
<path d="M49.5997 61.9655L49.569 57.4206C49.569 53.763 53.9123 55.0909 53.2534 49.3997L52.0276 28.1433C51.9872 27.1909 50.8421 27.1732 50.8772 28.126L50.6907 46.3273C50.596 47.8105 48.8357 47.565 48.8917 46.0057L48.6655 28.1055C48.6655 27.0373 47.553 27.2531 47.5426 28.1844L47.2391 46.4425C47.2036 47.6057 45.482 47.4925 45.5181 46.3879L45.2602 28.0764C45.2602 27.2499 44.1999 27.1684 44.1777 27.9781L43.8678 46.4677C43.7851 47.7306 42.0848 47.5607 42.1729 46.1968L41.96 28.1285C41.9737 27.1083 40.9267 27.1617 40.8784 28.1285L39.4909 50.2914C39.4582 55.0645 43.1694 53.556 43.2537 57.6353L43.249 61.9861C29.7058 59.8944 21.9192 44.362 29.1879 31.9434C36.9689 18.6497 56.2186 18.8049 63.7541 32.222C70.7145 44.6148 62.9027 59.8142 49.5997 61.9655Z" fill="#F6F6F6"/>
<path d="M89.7596 22.0861L89.7904 26.631C89.7904 30.2887 85.447 28.9608 86.1059 34.6519L87.3318 55.9083C87.3721 56.8607 88.5173 56.8784 88.4822 55.9257L88.6686 37.7243C88.7633 36.2411 90.5236 36.4866 90.4676 38.0459L90.6939 55.9461C90.6939 57.0143 91.8063 56.7985 91.8167 55.8672L92.1203 37.6091C92.1558 36.4459 93.8773 36.5591 93.8413 37.6637L94.0992 55.9752C94.0992 56.8017 95.1594 56.8832 95.1816 56.0735L95.4916 37.5839C95.5743 36.321 97.2745 36.4909 97.1864 37.8548L97.3993 55.9231C97.3857 56.9433 98.4326 56.8899 98.4809 55.9231L99.8685 33.7602C99.9011 28.9871 96.19 30.4956 96.1056 26.4164L96.1103 22.0655C109.654 24.1573 117.44 39.6896 110.171 52.1082C102.39 65.4019 83.1408 65.2467 75.6052 51.8297C68.6449 39.4368 76.4567 24.2374 89.7596 22.0861Z" fill="#F6F6F6"/>
<path d="M142.22 58.9063C139.385 61.4793 135.784 62.7658 131.415 62.7658C127.41 62.7658 124.251 61.6093 121.936 59.2962C119.544 56.9051 118.348 53.5394 118.348 49.199C118.348 44.8327 118.985 41.0252 120.259 37.7764C121.533 34.5017 123.21 31.7598 125.291 29.5506C129.4 25.1843 134.444 22.8842 140.426 22.6503C140.217 14.6454 139.944 10.0581 139.606 8.88857C139.294 7.69304 138.969 6.7574 138.631 6.08166C138.319 5.37993 137.955 4.74317 137.539 4.17139L136.213 2.3391H150.45C149.722 4.96409 149.293 7.51111 149.163 9.98015C149.059 12.4492 148.981 14.6194 148.929 16.4906C148.877 18.3619 148.838 20.3242 148.812 22.3774C148.734 25.8081 148.695 29.2257 148.695 32.6304C148.695 36.0091 148.695 38.5691 148.695 40.3105C148.721 42.0518 148.76 43.7022 148.812 45.2616C148.942 51.1093 149.163 54.592 149.475 55.7095C149.787 56.8011 150.099 57.6848 150.411 58.3605C150.749 59.0103 151.126 59.621 151.543 60.1928L152.869 61.9861H142.766L142.22 58.9063ZM140.465 47.6786C140.595 43.6762 140.66 39.9336 140.66 36.451C140.66 32.9423 140.621 29.6026 140.543 26.4318C136.772 27.0036 133.755 29.2257 131.493 33.0982C129.23 36.9448 128.099 41.7919 128.099 47.6396C128.099 51.0963 128.359 53.5134 128.879 54.8909C129.426 56.2683 130.063 57.2819 130.791 57.9317C131.545 58.5554 132.442 58.8673 133.482 58.8673C134.548 58.8673 135.472 58.6594 136.252 58.2436C137.058 57.8017 137.76 57.165 138.358 56.3333C139.658 54.566 140.361 51.6811 140.465 47.6786Z" fill="#0E110F"/>
<path d="M171.67 12.1243C171.15 12.982 170.513 13.7097 169.759 14.3075C169.005 14.8793 168.147 15.1652 167.184 15.1652C166.222 15.1652 165.364 14.8793 164.61 14.3075C163.856 13.7097 163.219 12.982 162.699 12.1243C161.632 10.357 161.099 8.48573 161.099 6.51049C161.099 4.11941 162.191 2.52103 164.376 1.71534C165.156 1.42945 166.105 1.2865 167.223 1.2865C170.318 1.2865 172.242 2.37808 172.996 4.56124C173.23 5.185 173.348 5.88673 173.348 6.66643C173.348 7.42014 173.204 8.3038 172.918 9.31741C172.632 10.331 172.216 11.2667 171.67 12.1243ZM161.099 61.9861C162.296 57.8797 162.894 50.8234 162.894 40.8173C162.894 33.774 162.27 28.9269 161.021 26.2759C160.709 25.6001 160.358 24.9764 159.968 24.4046L158.681 22.6113H172.528C171.384 26.8996 170.812 33.5141 170.812 42.4546C170.812 51.3692 171.41 57.8797 172.606 61.9861H161.099Z" fill="#0E110F"/>
<path d="M183.606 61.9861C184.829 57.8017 185.44 49.355 185.44 36.6459C185.44 34.4107 185.414 32.9683 185.362 32.3185C185.31 31.6428 185.076 31.266 184.66 31.188C182.943 30.7981 181.916 29.8105 181.578 28.2251C181.5 27.8093 181.396 27.3675 181.266 26.8996H183.762C184.491 26.8996 184.933 26.7437 185.089 26.4318C185.271 26.0939 185.362 25.1713 185.362 23.6639C185.362 20.727 185.245 17.8421 185.011 15.0092C184.803 12.1763 184.92 10.0321 185.362 8.5767C185.804 7.12126 186.493 5.87374 187.429 4.83414C189.405 2.65098 192.201 1.5594 195.816 1.5594C197.168 1.5594 198.403 1.68935 199.521 1.94925C200.639 2.20915 201.719 2.3391 202.759 2.3391C203.799 2.3391 204.709 2.19615 205.489 1.91026C206.27 1.62437 206.959 0.987619 207.557 0C207.895 0.38985 208.207 1.09158 208.493 2.10519C208.779 3.09281 208.922 4.18439 208.922 5.37993C208.922 6.54948 208.831 7.797 208.649 9.12249C208.493 10.422 208.259 11.6955 207.947 12.943C207.297 15.542 206.387 17.6082 205.216 19.1416C204.592 13.8397 204.007 10.5389 203.461 9.23944C202.941 7.93994 202.356 7.05628 201.706 6.58846C201.082 6.09465 200.145 5.84775 198.897 5.84775C197.649 5.84775 196.531 6.51049 195.543 7.83598C194.58 9.13548 194.099 10.9288 194.099 13.2159V14.4634C194.099 19.6614 194.242 22.8062 194.528 23.8978C194.814 24.9634 195.204 25.6651 195.699 26.003C196.193 26.3408 196.895 26.5098 197.805 26.5098H204.982C204.332 28.8489 203.526 30.3563 202.564 31.032C202.096 31.3959 201.563 31.5778 200.965 31.5778C200.392 31.5778 199.937 31.5388 199.599 31.4609C199.261 31.3829 198.936 31.2919 198.624 31.188C197.844 30.9281 197.129 30.7981 196.479 30.7981C195.855 30.7981 195.374 30.8891 195.035 31.071C194.697 31.227 194.424 31.4609 194.216 31.7728C193.904 32.2926 193.748 33.1242 193.748 34.2678V40.9342C193.748 49.0171 194.034 54.0722 194.606 56.0994C195.022 57.6068 195.556 58.8023 196.206 59.686L197.844 61.9861H183.606Z" fill="#0E110F"/>
<path d="M232.911 49.0821L232.95 40.4274C232.95 34.9955 232.807 31.4479 232.521 29.7845C232.235 28.1212 232.001 26.9646 231.819 26.3149C231.663 25.6391 231.468 25.0154 231.234 24.4436L230.493 22.6113H242L241.805 24.4046C241.649 25.6521 241.545 27.4714 241.493 29.8625L241.337 35.7882C241.207 40.3365 241.142 44.5858 241.142 48.5363C241.142 52.4868 240.895 55.8655 240.401 58.6724C239.933 61.4793 239.296 63.9484 238.489 66.0795C237.683 68.2107 236.76 70.043 235.72 71.5764C234.68 73.1358 233.587 74.4353 232.443 75.4749C230.467 77.3462 228.257 78.6977 225.812 79.5294C225.292 79.3214 224.785 78.9316 224.291 78.3598C223.823 77.814 223.537 77.2942 223.433 76.8004C225.721 75.6309 227.554 73.8375 228.933 71.4205C230.883 67.9898 232.118 63.0387 232.638 56.5672C229.622 60.6996 225.916 62.7658 221.521 62.7658C218.401 62.7658 215.982 61.5443 214.266 59.1012C212.628 56.7361 211.809 53.4874 211.809 49.355V44.092C211.809 42.9225 211.796 41.7269 211.77 40.5054V36.9578C211.717 34.6966 211.626 32.9423 211.496 31.6948C211.392 30.4213 211.262 29.3687 211.106 28.537C210.976 27.6793 210.807 26.9256 210.599 26.2759C210.391 25.6001 210.157 24.9764 209.897 24.4046L209.039 22.6113H220.936C220.26 26.3279 219.922 33.3581 219.922 43.7022C219.922 47.9125 220.143 50.7195 220.585 52.1229C221.027 53.5264 221.573 54.553 222.223 55.2027C222.9 55.8265 223.758 56.1384 224.798 56.1384C225.838 56.1384 226.748 55.9824 227.528 55.6705C228.335 55.3327 229.063 54.8908 229.713 54.3451C230.987 53.3574 232.053 51.993 232.911 50.2516V49.0821Z" fill="white"/>
<path d="M2.34043 61.9861C3.56265 57.8017 4.17376 49.355 4.17376 36.6459C4.17376 34.4107 4.14775 32.9683 4.09574 32.3185C4.04374 31.6428 3.80969 31.266 3.39362 31.188C1.6773 30.7981 0.650118 29.8105 0.312057 28.2251C0.234043 27.8093 0.130024 27.3675 0 26.8996H2.49645C3.22459 26.8996 3.66667 26.7437 3.8227 26.4318C4.00473 26.0939 4.09574 25.1713 4.09574 23.6639C4.09574 20.727 3.97872 17.8421 3.74468 15.0092C3.53664 12.1763 3.65366 10.0321 4.09574 8.5767C4.53783 7.12126 5.22695 5.87374 6.16312 4.83414C8.13948 2.65098 10.935 1.5594 14.5496 1.5594C15.9019 1.5594 17.1371 1.68935 18.2553 1.94925C19.3735 2.20915 20.4527 2.3391 21.4929 2.3391C22.5331 2.3391 23.4433 2.19615 24.2234 1.91026C25.0035 1.62437 25.6927 0.987619 26.2908 0C26.6288 0.38985 26.9409 1.09158 27.2269 2.10519C27.513 3.09281 27.656 4.18439 27.656 5.37993C27.656 6.54948 27.565 7.797 27.383 9.12249C27.2269 10.422 26.9929 11.6955 26.6809 12.943C26.0307 15.542 25.1206 17.6082 23.9504 19.1416C23.3262 13.8397 22.7411 10.5389 22.195 9.23944C21.6749 7.93994 21.0898 7.05628 20.4397 6.58846C19.8156 6.09465 18.8794 5.84775 17.6312 5.84775C16.383 5.84775 15.2648 6.51049 14.2766 7.83598C13.3144 9.13548 12.8333 10.9288 12.8333 13.2159V14.4634C12.8333 19.6614 12.9764 22.8062 13.2624 23.8978C13.5485 24.9634 13.9385 25.6651 14.4326 26.003C14.9267 26.3408 15.6288 26.5098 16.539 26.5098H23.7163C23.0662 28.8489 22.26 30.3563 21.2979 31.032C20.8298 31.3959 20.2967 31.5778 19.6986 31.5778C19.1265 31.5778 18.6714 31.5388 18.3333 31.4609C17.9953 31.3829 17.6702 31.2919 17.3582 31.188C16.578 30.9281 15.8629 30.7981 15.2128 30.7981C14.5887 30.7981 14.1076 30.8891 13.7695 31.071C13.4314 31.227 13.1584 31.4609 12.9504 31.7728C12.6383 32.2926 12.4823 33.1242 12.4823 34.2678V40.9342C12.4823 49.0171 12.7683 54.0722 13.3404 56.0994C13.7565 57.6068 14.2896 58.8023 14.9397 59.686L16.578 61.9861H2.34043Z" fill="white"/>
</svg>
