<svg width="24" height="24" viewBox="0 0 24 24" fill="none" xmlns="http://www.w3.org/2000/svg">
<g clip-path="url(#clip0_1562_1131)">
<path d="M23.1429 0.856934H18.8572L17.3657 15.6855C17.3037 16.0943 17.0961 16.4669 16.7811 16.7347C16.4661 17.0024 16.0649 17.1473 15.6514 17.1426H4.85145C4.47762 17.1622 4.10768 17.0588 3.79813 16.8483C3.48858 16.6378 3.25644 16.3318 3.13716 15.9769L0.857162 9.11979C0.772153 8.86199 0.749582 8.58768 0.791307 8.31945C0.833032 8.05122 0.937859 7.79673 1.09716 7.57693C1.26312 7.34324 1.48502 7.15489 1.74258 7.02911C2.00013 6.90333 2.28511 6.84413 2.57145 6.85693H18.2572" stroke="#F6F6F6" stroke-width="2" stroke-linecap="round" stroke-linejoin="round"/>
<path d="M5.14285 23.1425C5.61624 23.1425 5.99999 22.7588 5.99999 22.2854C5.99999 21.812 5.61624 21.4282 5.14285 21.4282C4.66946 21.4282 4.28571 21.812 4.28571 22.2854C4.28571 22.7588 4.66946 23.1425 5.14285 23.1425Z" stroke="#F6F6F6" stroke-width="2" stroke-linecap="round" stroke-linejoin="round"/>
<path d="M16.2857 23.1425C16.7591 23.1425 17.1429 22.7588 17.1429 22.2854C17.1429 21.812 16.7591 21.4282 16.2857 21.4282C15.8123 21.4282 15.4286 21.812 15.4286 22.2854C15.4286 22.7588 15.8123 23.1425 16.2857 23.1425Z" stroke="#F6F6F6" stroke-width="2" stroke-linecap="round" stroke-linejoin="round"/>
</g>
<defs>
<clipPath id="clip0_1562_1131">
<rect width="24" height="24" fill="white"/>
</clipPath>
</defs>
</svg>
