<svg width="67" height="95" viewBox="0 0 67 95" fill="none" xmlns="http://www.w3.org/2000/svg">
<path d="M57.1142 7.84324L26.0049 1.88199C20.5807 0.842594 15.341 4.39715 14.3016 9.82131L4.9097 58.8336C4.31833 61.9197 5.2119 65.1043 7.3224 67.4322L21.8064 83.4085C25.1089 87.0512 30.5695 87.7527 34.6854 85.0629L51.4968 74.0767C53.767 72.5931 55.3373 70.2512 55.8477 67.5877L65.0535 19.5465C66.0929 14.1224 62.5383 8.88263 57.1142 7.84324Z" fill="#065E21"/>
<path d="M32.4787 21.263C29.2431 20.5718 26.0645 22.6081 25.38 25.812C24.8275 28.3984 24.5415 34.7557 33.3093 43.1172C33.4666 43.2658 33.6617 43.3683 33.8733 43.4135C34.085 43.4588 34.305 43.4449 34.5093 43.3735C45.9283 39.3247 48.2651 33.4055 48.8176 30.8192C49.5021 27.6152 47.433 24.4578 44.1975 23.7666C40.9619 23.0753 37.587 26.0304 37.587 26.0304C37.587 26.0304 35.7142 21.9542 32.4787 21.263Z" fill="white"/>
<circle cx="28.9439" cy="72.8953" r="4.64531" fill="white"/>
</svg>
