<svg width="106" height="133" viewBox="0 0 106 133" fill="none" xmlns="http://www.w3.org/2000/svg">
<path d="M56.1232 2.7212L56.4156 2.61944C62.5683 0.565449 69.2708 3.78326 71.4925 9.91726L95.4217 75.9828C96.5299 79.0425 96.3479 82.421 94.9174 85.344L81.2065 113.361C78.6128 118.66 72.551 121.289 66.91 119.559L34.9517 109.76C31.3467 108.655 28.4708 105.918 27.1867 102.373L2.72111 34.8265C0.464133 28.5953 3.68591 21.7142 9.91718 19.4572L56.1232 2.7212Z" fill="white" stroke="#065E21" stroke-width="4"/>
<path d="M50.3186 31.9016C53.9894 30.4611 58.0883 32.2475 59.4966 35.8365C60.1256 37.4393 60.9242 40.3896 60.2823 44.6665C59.642 48.9332 57.5485 54.6432 52.2212 61.7465C43.4857 60.1619 38.0683 57.3986 34.6973 54.7062C31.318 52.0073 29.8961 49.3015 29.2671 47.6987C27.8588 44.1099 29.6491 40.0126 33.3197 38.572C35.0105 37.9085 37.0805 38.1832 38.9583 38.8016C39.8615 39.0991 40.641 39.4506 41.1942 39.7275C41.4693 39.8653 41.6846 39.9827 41.8262 40.0628C41.8968 40.1028 41.949 40.1332 41.9808 40.1522C41.9968 40.1616 42.0082 40.1684 42.0137 40.1718L42.0141 40.1727L42.0153 40.1732L42.0179 40.1743L42.2228 40.2849C42.7227 40.5191 43.3006 40.5407 43.8208 40.3365C44.4143 40.1036 44.8637 39.6047 45.0329 38.9902C45.0331 38.9894 45.0333 38.9882 45.0337 38.9867C45.0354 38.9805 45.0383 38.968 45.0435 38.9503C45.054 38.9148 45.0716 38.857 45.0961 38.7797C45.1455 38.6246 45.2234 38.3921 45.3314 38.1041C45.5487 37.5247 45.8819 36.7368 46.3418 35.9043C47.2979 34.174 48.628 32.565 50.3186 31.9016Z" fill="white" stroke="#065E21" stroke-width="4.04771" stroke-linecap="round" stroke-linejoin="round"/>
<circle cx="66.7828" cy="99.7573" r="5.89598" fill="white"/>
<circle cx="66.7828" cy="99.7573" r="5.89598" stroke="#065E21"/>
</svg>
